<svg xmlns="http://www.w3.org/2000/svg" xmlns:xlink="http://www.w3.org/1999/xlink" width="2000" zoomAndPan="magnify" viewBox="0 0 1500 1499.999933" height="2000" preserveAspectRatio="xMidYMid meet" version="1.0"><defs><clipPath id="401655980f"><path d="M 210 442 L 1290 442 L 1290 1058 L 210 1058 Z M 210 442 " clip-rule="nonzero"/></clipPath><clipPath id="4cae9a8a71"><path d="M 154.316406 532.753906 L 1234.820312 341.78125 L 1345.382812 967.335938 L 264.882812 1158.308594 Z M 154.316406 532.753906 " clip-rule="nonzero"/></clipPath><clipPath id="5634a7ec01"><path d="M 154.316406 532.753906 L 1234.820312 341.78125 L 1345.382812 967.335938 L 264.882812 1158.308594 Z M 154.316406 532.753906 " clip-rule="nonzero"/></clipPath><clipPath id="f0615e9f8d"><path d="M 613 613 L 886 613 L 886 887 L 613 887 Z M 613 613 " clip-rule="nonzero"/></clipPath><clipPath id="1cabc488ed"><path d="M 154.316406 532.753906 L 1234.820312 341.78125 L 1345.382812 967.335938 L 264.882812 1158.308594 Z M 154.316406 532.753906 " clip-rule="nonzero"/></clipPath><clipPath id="babb5ed3a4"><path d="M 154.316406 532.753906 L 1234.820312 341.78125 L 1345.382812 967.335938 L 264.882812 1158.308594 Z M 154.316406 532.753906 " clip-rule="nonzero"/></clipPath><clipPath id="476aca6780"><path d="M 214 442 L 1295 442 L 1295 1058 L 214 1058 Z M 214 442 " clip-rule="nonzero"/></clipPath><clipPath id="023bfd45ca"><path d="M 158.632812 532.753906 L 1239.136719 341.78125 L 1349.699219 967.335938 L 269.199219 1158.308594 Z M 158.632812 532.753906 " clip-rule="nonzero"/></clipPath><clipPath id="90b07f8fb3"><path d="M 158.632812 532.753906 L 1239.136719 341.78125 L 1349.699219 967.335938 L 269.199219 1158.308594 Z M 158.632812 532.753906 " clip-rule="nonzero"/></clipPath><clipPath id="6720e4dfca"><path d="M 617 613 L 891 613 L 891 887 L 617 887 Z M 617 613 " clip-rule="nonzero"/></clipPath><clipPath id="aa646e47c3"><path d="M 158.632812 532.753906 L 1239.136719 341.78125 L 1349.699219 967.335938 L 269.199219 1158.308594 Z M 158.632812 532.753906 " clip-rule="nonzero"/></clipPath><clipPath id="623e6a517e"><path d="M 158.632812 532.753906 L 1239.136719 341.78125 L 1349.699219 967.335938 L 269.199219 1158.308594 Z M 158.632812 532.753906 " clip-rule="nonzero"/></clipPath></defs><g clip-path="url(#401655980f)"><g clip-path="url(#4cae9a8a71)"><g clip-path="url(#5634a7ec01)"><path fill="#b6192e" d="M 210.5625 847.09375 C 239.933594 804.121094 266.320312 762.027344 296.183594 722.558594 C 355.507812 644.152344 424.765625 575.71875 508.921875 523.6875 C 628.71875 449.625 757.753906 426.132812 895.945312 454.339844 C 1005.15625 476.632812 1102.742188 525.339844 1194.519531 586.835938 C 1226.441406 608.21875 1257.449219 631.011719 1289.761719 653.78125 C 1260.535156 695.769531 1234.050781 736.667969 1204.726562 775.386719 C 1145.378906 853.765625 1076.503906 922.480469 992.601562 974.929688 C 870.363281 1051.339844 738.59375 1074.359375 597.761719 1044.300781 C 489.808594 1021.261719 393.109375 972.621094 302.25 911.441406 C 271.121094 890.492188 240.804688 868.359375 210.5625 847.09375 Z M 944.652344 715.828125 C 925.761719 609.128906 823.039062 536.421875 716.742188 554.539062 C 608.882812 572.917969 535.507812 676.636719 554.324219 784.101562 C 573.15625 891.625 677.347656 964.261719 785.035156 944.894531 C 891.066406 925.835938 963.429688 821.976562 944.652344 715.828125 Z M 1203.261719 669.691406 C 1100.855469 597.167969 996.488281 537.277344 874.050781 516.507812 C 1014.542969 598.269531 1060.78125 784.507812 942.222656 930.914062 C 1054.652344 864.550781 1132.460938 772.828125 1203.261719 669.691406 Z M 551.773438 574.042969 C 444.210938 636.804688 365.835938 727.765625 297.160156 828.5625 C 384.996094 902.082031 557.9375 983.804688 624.800781 981.175781 C 478.175781 896.492188 442.355469 708.625 551.773438 574.042969 Z M 551.773438 574.042969 " fill-opacity="1" fill-rule="nonzero"/></g></g></g><g clip-path="url(#f0615e9f8d)"><g clip-path="url(#1cabc488ed)"><g clip-path="url(#babb5ed3a4)"><path fill="#b6192e" d="M 775.015625 618.75 C 749.207031 644.164062 743.757812 661.527344 754.695312 683.429688 C 762.875 699.824219 782.25 709.433594 800.957031 706.398438 C 823.644531 702.707031 833.675781 688.777344 840.730469 651.152344 C 900.507812 700.417969 893.277344 781.535156 863.210938 825.105469 C 822.558594 884.046875 746.792969 903.835938 685.445312 870.503906 C 623.265625 836.722656 596.789062 763.382812 623.410156 697.714844 C 650.945312 629.828125 730.949219 599.703125 775.015625 618.75 Z M 775.015625 618.75 " fill-opacity="1" fill-rule="nonzero"/></g></g></g><g clip-path="url(#476aca6780)"><g clip-path="url(#023bfd45ca)"><g clip-path="url(#90b07f8fb3)"><path fill="#b6192e" d="M 214.878906 847.09375 C 244.25 804.121094 270.636719 762.027344 300.5 722.558594 C 359.824219 644.152344 429.082031 575.71875 513.238281 523.6875 C 633.035156 449.625 762.070312 426.132812 900.261719 454.339844 C 1009.472656 476.632812 1107.058594 525.339844 1198.835938 586.835938 C 1230.757812 608.21875 1261.765625 631.011719 1294.078125 653.78125 C 1264.851562 695.769531 1238.367188 736.667969 1209.042969 775.386719 C 1149.695312 853.765625 1080.824219 922.480469 996.917969 974.929688 C 874.679688 1051.339844 742.910156 1074.359375 602.078125 1044.300781 C 494.125 1021.261719 397.425781 972.621094 306.570312 911.441406 C 275.4375 890.492188 245.121094 868.359375 214.878906 847.09375 Z M 948.96875 715.828125 C 930.078125 609.128906 827.355469 536.421875 721.058594 554.539062 C 613.199219 572.917969 539.824219 676.636719 558.640625 784.101562 C 577.472656 891.625 681.664062 964.261719 789.351562 944.894531 C 895.382812 925.835938 967.746094 821.976562 948.96875 715.828125 Z M 1207.578125 669.691406 C 1105.171875 597.167969 1000.804688 537.277344 878.367188 516.507812 C 1018.863281 598.269531 1065.101562 784.507812 946.539062 930.914062 C 1058.96875 864.550781 1136.777344 772.828125 1207.578125 669.691406 Z M 556.089844 574.042969 C 448.527344 636.804688 370.152344 727.765625 301.476562 828.5625 C 389.316406 902.082031 562.253906 983.804688 629.117188 981.175781 C 482.492188 896.492188 446.671875 708.625 556.089844 574.042969 Z M 556.089844 574.042969 " fill-opacity="1" fill-rule="nonzero"/></g></g></g><g clip-path="url(#6720e4dfca)"><g clip-path="url(#aa646e47c3)"><g clip-path="url(#623e6a517e)"><path fill="#b6192e" d="M 779.332031 618.75 C 753.523438 644.164062 748.074219 661.527344 759.011719 683.429688 C 767.191406 699.824219 786.566406 709.433594 805.273438 706.398438 C 827.960938 702.707031 837.992188 688.777344 845.046875 651.152344 C 904.828125 700.417969 897.59375 781.535156 867.527344 825.105469 C 826.875 884.046875 751.109375 903.835938 689.761719 870.503906 C 627.582031 836.722656 601.105469 763.382812 627.726562 697.714844 C 655.261719 629.828125 735.265625 599.703125 779.332031 618.75 Z M 779.332031 618.75 " fill-opacity="1" fill-rule="nonzero"/></g></g></g></svg>